<?xml version="1.0" standalone="no"?>
<!DOCTYPE svg PUBLIC "-//W3C//DTD SVG 20010904//EN"
 "http://www.w3.org/TR/2001/REC-SVG-20010904/DTD/svg10.dtd">
<svg version="1.0" xmlns="http://www.w3.org/2000/svg"
 width="260.000000pt" height="260.000000pt" viewBox="0 0 260.000000 260.000000"
 preserveAspectRatio="xMidYMid meet">
<metadata>
Created by potrace 1.11, written by Peter Selinger 2001-2013
</metadata>
<g transform="translate(0.000000,260.000000) scale(0.100000,-0.100000)"
fill="#000000" stroke="none">
<path d="M100 1300 l0 -1200 1200 0 1200 0 0 1200 0 1200 -1200 0 -1200 0 0
-1200z m770 770 l0 -340 -340 0 -340 0 0 340 0 340 340 0 340 0 0 -340z m770
0 l0 -340 -340 0 -340 0 0 340 0 340 340 0 340 0 0 -340z m770 0 l0 -340 -340
0 -340 0 0 340 0 340 340 0 340 0 0 -340z m-1540 -770 l0 -340 -340 0 -340 0
0 340 0 340 340 0 340 0 0 -340z m770 0 l0 -340 -340 0 -340 0 0 340 0 340
340 0 340 0 0 -340z m770 0 l0 -340 -340 0 -340 0 0 340 0 340 340 0 340 0 0
-340z m-1540 -770 l0 -340 -340 0 -340 0 0 340 0 340 340 0 340 0 0 -340z
m770 0 l0 -340 -340 0 -340 0 0 340 0 340 340 0 340 0 0 -340z m770 0 l0 -340
-340 0 -340 0 0 340 0 340 340 0 340 0 0 -340z"/>
<path d="M480 2070 l0 -240 50 0 50 0 0 240 0 240 -50 0 -50 0 0 -240z"/>
<path d="M1160 1490 l0 -50 95 0 95 0 0 -45 0 -45 -95 0 -95 0 0 -145 0 -145
140 0 140 0 0 50 0 50 -95 0 -95 0 0 45 0 45 95 0 95 0 0 145 0 145 -140 0
-140 0 0 -50z"/>
<path d="M1930 720 l0 -50 95 0 95 0 0 -45 0 -45 -50 0 -50 0 0 -50 0 -50 50
0 50 0 0 -45 0 -45 -95 0 -95 0 0 -50 0 -50 140 0 140 0 0 240 0 240 -140 0
-140 0 0 -50z"/>
</g>
</svg>
